<svg width="24" height="25" viewBox="0 0 24 25" fill="none" xmlns="http://www.w3.org/2000/svg">
<g id="icons">
<path id="Vector" d="M22.169 16.8708C22.7012 17.4044 23 18.1271 23 18.8807C23 19.6342 22.7012 20.357 22.169 20.8906L21.3334 21.8537C13.8131 29.0531 -4.48748 10.7585 2.60134 3.21478L3.65732 2.29661C4.19152 1.77938 4.9079 1.49325 5.65146 1.50012C6.39503 1.50699 7.10599 1.80632 7.63054 2.33333C7.65901 2.3618 9.36051 4.57184 9.36051 4.57184C9.86539 5.10221 10.1464 5.80672 10.1452 6.53894C10.144 7.27116 9.86069 7.97476 9.35408 8.50347L8.29076 9.84033C8.87921 11.27 9.74439 12.5694 10.8366 13.6637C11.9288 14.758 13.2265 15.6258 14.6551 16.2171L16.0003 15.1474C16.5291 14.6412 17.2326 14.3582 17.9647 14.3572C18.6967 14.3562 19.4011 14.6372 19.9313 15.1419C19.9313 15.1419 22.1406 16.8423 22.169 16.8708ZM20.9055 18.2058C20.9055 18.2058 18.7082 16.5155 18.6797 16.487C18.4906 16.2994 18.235 16.1942 17.9686 16.1942C17.7022 16.1942 17.4465 16.2994 17.2574 16.487C17.2326 16.5127 15.3805 17.9882 15.3805 17.9882C15.2557 18.0876 15.1071 18.1527 14.9495 18.1771C14.7919 18.2016 14.6306 18.1846 14.4815 18.1278C12.6308 17.4388 10.9497 16.36 9.55227 14.9647C8.1548 13.5694 7.07354 11.8901 6.38174 10.0405C6.3204 9.88941 6.3004 9.72472 6.3238 9.56335C6.3472 9.40198 6.41315 9.24976 6.51488 9.12232C6.51488 9.12232 7.99049 7.26944 8.01529 7.24557C8.20285 7.05641 8.30809 6.80082 8.30809 6.53444C8.30809 6.26806 8.20285 6.01247 8.01529 5.82332C7.98682 5.79577 6.29634 3.59674 6.29634 3.59674C6.10434 3.42459 5.85375 3.33239 5.59595 3.33905C5.33815 3.34571 5.09266 3.45072 4.9098 3.63255L3.85382 4.55073C-1.32689 10.7796 14.532 25.7578 19.991 20.5995L20.8275 19.6354C21.0235 19.4539 21.1413 19.2032 21.1558 18.9364C21.1704 18.6696 21.0806 18.4076 20.9055 18.2058Z" fill="#E14833"/>
</g>
</svg>
