<svg width="61" height="61" viewBox="0 0 61 61" fill="none" xmlns="http://www.w3.org/2000/svg">
<g id="VK 66">
<path id="Vector" fill-rule="evenodd" clip-rule="evenodd" d="M30.8466 11.4375C27.5275 11.4481 24.2706 12.3293 21.4076 13.9914C18.5447 15.6535 16.1781 18.0371 14.5489 20.8993C12.9198 23.7615 12.0863 26.9999 12.1334 30.2848C12.1805 33.5696 13.1065 36.7834 14.8171 39.5986L11.4375 49.5625L21.7997 46.2708C24.3051 47.63 27.0911 48.4046 29.9451 48.5353C32.7991 48.666 35.6456 48.1495 38.2671 47.0252C40.8886 45.9008 43.2159 44.1984 45.0712 42.0479C46.9265 39.8974 48.2607 37.3557 48.9721 34.6169C49.6834 31.8781 49.753 29.0146 49.1755 26.2451C48.598 23.4756 47.3888 20.8734 45.6401 18.6371C43.8913 16.4008 41.6495 14.5896 39.0856 13.3419C36.5217 12.0941 33.7036 11.4427 30.8466 11.4375ZM30.8466 14.5481C27.9715 14.5552 25.1543 15.3476 22.7051 16.8379C20.2558 18.3283 18.2697 20.4588 16.9655 22.9948C15.6613 25.5308 15.0895 28.3739 15.3132 31.2109C15.5369 34.048 16.5473 36.7689 18.2333 39.0739L16.2864 44.8148L22.2753 42.913C24.8152 44.5829 27.7973 45.4723 30.8466 45.4691C34.9798 45.4548 38.9388 43.8196 41.8563 40.9217C44.7738 38.0239 46.412 34.0996 46.412 30.0086C46.412 25.9176 44.7738 21.9934 41.8563 19.0955C38.9388 16.1977 34.9798 14.5625 30.8466 14.5481ZM40.5155 34.8163C40.4038 34.6142 40.0899 34.4833 39.622 34.2288C39.154 33.9744 36.847 32.7397 36.4157 32.5653C35.9843 32.3909 35.6685 32.3005 35.3315 32.7633C34.9945 33.2261 34.0394 34.2586 33.7486 34.5649C33.4578 34.8711 33.1786 34.8995 32.7087 34.644C32.2388 34.3884 30.7195 33.8314 28.9555 32.1492C27.9472 31.1517 27.0933 30.0122 26.4213 28.7677C26.1614 28.2826 26.4194 28.0354 26.6678 27.8084C26.8912 27.6035 27.1666 27.2721 27.4169 27.0043C27.6225 26.7723 27.7931 26.5121 27.9234 26.2318C27.9918 26.1033 28.0269 25.96 28.0256 25.8148C28.0242 25.6696 27.9865 25.527 27.9157 25.3998C27.804 25.1589 26.9374 22.7901 26.5754 21.8264C26.2134 20.8627 25.809 21.0068 25.5297 20.9952C25.2505 20.9836 24.9347 20.9336 24.617 20.922C24.3743 20.9193 24.1337 20.9663 23.9103 21.0602C23.6869 21.154 23.4856 21.2926 23.319 21.4673C22.8646 21.9248 21.5859 23.0262 21.4993 25.3594C21.4126 27.6925 23.0379 30.0091 23.2632 30.3341C23.4885 30.6591 26.3693 35.7157 31.1547 37.795C35.94 39.8742 35.9651 39.2399 36.8432 39.1932C37.7213 39.1465 39.7125 38.151 40.1535 37.0596C40.5944 35.9683 40.6272 35.0185 40.5155 34.8163Z" fill="#FFFEFE"/>
</g>
</svg>
