<svg width="63" height="63" viewBox="0 0 63 63" fill="none" xmlns="http://www.w3.org/2000/svg">
<g id="VK 64">
<path id="Vector" d="M50.2031 43.3063H49.7706C47.844 43.3063 45.9168 43.3001 43.9902 43.3125C43.691 43.3125 43.5488 43.249 43.4366 42.9307C42.4519 40.1353 40.7994 37.8652 38.2682 36.3145C36.9496 35.5075 35.5174 35.0373 33.9472 34.8688V43.2497C33.8979 43.273 33.8461 43.2902 33.7928 43.3008C29.6214 43.3836 25.6573 42.6145 22.085 40.3016C19.1656 38.412 17.0683 35.7919 15.5824 32.643C14.4523 30.2315 13.6962 27.6572 13.3409 25.0112C13.1002 23.2617 12.9771 21.495 12.7969 19.6992H19.2472C19.2662 20.0734 19.2853 20.4587 19.3057 20.8439C19.4777 24.0847 20.0353 27.2343 21.4818 30.1644C22.5019 32.2412 23.8851 34.0107 25.8926 35.1919C26.5047 35.5503 27.1739 35.7988 27.8981 36.1344V19.6923H33.9145V29.0384C34.2872 28.9583 34.6163 28.9106 34.9346 28.816C36.6701 28.2955 38.0628 27.2281 39.2808 25.9163C40.8718 24.203 42.0489 22.1378 42.7192 19.8836C42.7389 19.8187 42.7681 19.7559 42.7946 19.6875H48.7791C48.3425 22.173 47.351 24.3871 45.9229 26.41C44.4948 28.4329 42.7593 30.1306 40.6416 31.4451C45.4802 34.0224 48.6356 37.9612 50.2031 43.3063Z" fill="#FFFEFE"/>
</g>
</svg>
