<svg width="61" height="61" viewBox="0 0 61 61" fill="none" xmlns="http://www.w3.org/2000/svg">
<g id="VK 68">
<path id="Vector" d="M12.0864 30.6963C22.0665 26.2579 28.7199 23.3316 32.0466 21.9179C41.5561 17.8809 43.5297 17.1797 44.8186 17.156C45.1021 17.1513 45.7332 17.2229 46.145 17.5628C46.4873 17.8495 46.5836 18.2372 46.6317 18.5094C46.6745 18.7813 46.7334 19.4011 46.6852 19.8849C46.1718 25.411 43.9415 38.8211 42.8076 45.0106C42.3316 47.6295 41.385 48.5076 40.4704 48.5933C38.4808 48.7801 36.9725 47.2522 35.0471 45.964C32.0359 43.9474 30.3351 42.6926 27.4096 40.7252C24.0294 38.4514 26.2222 37.2015 28.1476 35.1592C28.6504 34.6246 37.4111 26.4911 37.5769 25.7534C37.5983 25.6611 37.6197 25.3171 37.4164 25.1358C37.2185 24.9539 36.9244 25.0162 36.7104 25.0653C36.4056 25.1352 31.5974 28.3832 22.2697 34.8086C20.9059 35.7664 19.6704 36.2333 18.5579 36.2087C17.3385 36.182 14.9852 35.5032 13.2363 34.9233C11.0969 34.2118 9.39078 33.8356 9.54053 32.6271C9.61541 31.9981 10.4658 31.3543 12.0864 30.6963Z" fill="#FFFEFE"/>
</g>
</svg>
