<svg width="169" height="53" viewBox="0 0 169 53" fill="none" xmlns="http://www.w3.org/2000/svg">
<g id="a" clip-path="url(#clip0_395_70)">
<g id="Group">
<path id="Vector" d="M45.6619 9.92142H49.4671L55.819 25.2726L62.1154 9.92142H65.9205V29.4871H62.8702V15.3922L56.9662 29.4871H54.644L48.7112 15.3645V29.4871H45.6608V9.92142H45.6619Z" fill="#FFFEFE"/>
<path id="Vector_2" d="M71.8534 15.3079C72.0212 15.9222 72.1613 16.5364 72.2447 17.1496C73.224 15.9211 74.4835 15.0562 76.1343 15.0562L76.4144 17.5964C73.9244 17.3736 72.3014 19.0201 72.3014 21.6158V29.4871H69.3633V19.4392C69.3633 17.3736 69.3077 16.3967 69.1676 15.309H71.8545L71.8534 15.3079Z" fill="#FFFEFE"/>
<path id="Vector_3" d="M76.2188 29.4871V26.5011H79.7171V29.4871H76.2188Z" fill="#FFFEFE"/>
</g>
<g id="Group_2">
<path id="Vector_4" d="M84.4939 29.5148V9.94914H87.5443V27.0023H94.064V9.94914H97.1144V27.0023H103.634V9.94914H106.685V29.486L84.495 29.5137L84.4939 29.5148Z" fill="#FFFEFE"/>
<path id="Vector_5" d="M110.125 15.3079H113.063V21.3929L118.491 15.3079H121.821L116.839 20.8618L122.603 29.486H119.217L114.909 23.0384L113.062 25.104V29.486H110.124V15.3079H110.125Z" fill="#FFFEFE"/>
<path id="Vector_6" d="M133.631 29.4871C133.519 29.0402 133.323 28.0911 133.267 27.6454C132.26 28.9016 130.777 29.7388 129.042 29.7388C126.076 29.7388 124.117 27.9802 124.117 25.3568C124.117 22.9009 126.356 21.3375 130.078 20.9195L133.128 20.5569V19.9426C133.128 18.4912 132.066 17.4867 130.582 17.4867C129.098 17.4867 128.035 18.1841 127.699 19.3849L124.844 18.9103C125.432 16.5664 127.642 15.0307 130.608 15.0307C133.854 15.0307 136.093 17.1241 136.093 20.334V25.3579C136.093 27.4236 136.121 28.4004 136.261 29.4893H133.631V29.4871ZM133.127 23.7092V22.5926L130.161 22.9275C128.258 23.1503 127.083 23.9598 127.083 25.2437C127.083 26.5277 128.09 27.3371 129.602 27.3371C131.784 27.3371 133.128 25.8857 133.128 23.7092H133.127Z" fill="#FFFEFE"/>
<path id="Vector_7" d="M139.507 9.92142H152.574V12.3774H142.556V18.3504H152.042V20.8341H142.556V29.486H139.506V9.92142H139.507Z" fill="#FFFEFE"/>
<path id="Vector_8" d="M155.457 9.92142H168.524V12.3774H158.506V18.3504H167.992V20.8341H158.506V29.486H155.456V9.92142H155.457Z" fill="#FFFEFE"/>
</g>
<g id="Group_3">
<path id="Vector_9" d="M45.9409 35.7983H46.8458V38.7964L49.6994 35.7983H50.7688L48.3999 38.3141L51.1256 42.1505H50.0685L47.8007 38.9495L46.8458 39.9662V42.1516H45.9409V35.7994V35.7983Z" fill="#FFFEFE"/>
<path id="Vector_10" d="M56.2314 42.2525C54.4606 42.2525 53.2255 40.8932 53.2255 38.9617C53.2255 37.0302 54.4606 35.6708 56.2314 35.6708C58.0023 35.6708 59.2373 37.0302 59.2373 38.9617C59.2373 40.8932 58.0023 42.2525 56.2314 42.2525ZM56.2314 41.452C57.5054 41.452 58.3335 40.4862 58.3335 38.9617C58.3335 37.4371 57.5054 36.4968 56.2314 36.4968C54.9575 36.4968 54.1293 37.4493 54.1293 38.9617C54.1293 40.474 54.9575 41.452 56.2314 41.452Z" fill="#FFFEFE"/>
<path id="Vector_11" d="M62.689 44.6919H61.7841V37.5779C61.7841 36.7263 61.7719 36.2562 61.7207 35.7994H62.4978C62.5745 36.0788 62.6512 36.4724 62.689 36.7518C63.1859 36.1287 63.924 35.6719 64.7911 35.6719C66.4341 35.6719 67.5802 37.0435 67.5802 38.9872C67.5802 40.9309 66.4341 42.278 64.7911 42.278C63.9507 42.278 63.1992 41.9221 62.689 41.2746V44.6919ZM62.689 39.2167C62.689 40.3853 63.3771 41.4531 64.6121 41.4531C65.8472 41.4531 66.6753 40.5007 66.6753 38.9883C66.6753 37.4759 65.8983 36.4724 64.6121 36.4724C63.4271 36.4724 62.689 37.5646 62.689 38.7976V39.2167Z" fill="#FFFEFE"/>
<path id="Vector_12" d="M75.3751 35.7983V42.1505H74.4702V36.5478H71.0308V42.1505H70.1259V35.7983H75.374H75.3751Z" fill="#FFFEFE"/>
<path id="Vector_13" d="M80.2018 42.1505L77.7306 35.7983H78.6477L80.622 41.0196L82.6219 35.7983H83.5256L80.8633 42.6583C80.4808 43.6618 80.0606 44.805 78.6211 44.805C78.3665 44.805 78.0864 44.7795 77.7807 44.7163V43.9157C78.0864 43.9922 78.3409 44.0177 78.5455 44.0177C79.4748 44.0177 79.7805 43.2804 80.0228 42.6073L80.2007 42.1505H80.2018Z" fill="#FFFEFE"/>
<path id="Vector_14" d="M88.697 35.6719C90.0721 35.6719 91.1048 36.4979 91.4606 37.7553L90.5812 37.9083C90.3267 37.0191 89.6386 36.4979 88.6959 36.4979C87.422 36.4979 86.5938 37.4504 86.5938 38.9628C86.5938 40.4752 87.422 41.4276 88.6959 41.4276C89.6386 41.4276 90.3133 40.932 90.5812 40.0682L91.4606 40.2212C91.1037 41.4531 90.0721 42.2536 88.697 42.2536C86.9262 42.2536 85.6911 40.8943 85.6911 38.9628C85.6911 37.0313 86.9262 35.6719 88.697 35.6719Z" fill="#FFFEFE"/>
<path id="Vector_15" d="M94.8233 35.7983V38.5935H98.2627V35.7983H99.1665V42.1505H98.2627V39.3431H94.8233V42.1505H93.9195V35.7983H94.8233Z" fill="#FFFEFE"/>
<path id="Vector_16" d="M106.145 42.1505C106.056 41.8334 105.992 41.5152 105.954 41.1981C105.521 41.8201 104.885 42.2647 103.968 42.2647C102.643 42.2647 101.713 41.4642 101.713 40.321C101.713 39.1779 102.656 38.5802 104.299 38.3895L105.954 38.1988V37.8174C105.954 37.0302 105.368 36.4957 104.528 36.4957C103.688 36.4957 103.139 36.8128 102.923 37.4482L102.043 37.2952C102.361 36.2784 103.292 35.6686 104.527 35.6686C105.941 35.6686 106.858 36.5955 106.858 38.0059V40.3687C106.858 41.2203 106.87 41.6904 106.921 42.1472H106.144L106.145 42.1505ZM105.954 39.597V38.9107L104.286 39.1136C103.254 39.2411 102.617 39.6214 102.617 40.3199C102.617 40.9808 103.203 41.4631 104.043 41.4631C105.228 41.4631 105.954 40.688 105.954 39.5959V39.597Z" fill="#FFFEFE"/>
<path id="Vector_17" d="M113.508 42.1505V39.7245H111.737L110.26 42.1505H109.215L110.781 39.597C109.953 39.3043 109.533 38.5425 109.533 37.7675C109.533 36.7762 110.207 35.7983 111.545 35.7983H114.41V42.1505H113.507H113.508ZM113.508 36.5478H111.661C110.859 36.5478 110.452 37.1577 110.452 37.7675C110.452 38.3773 110.847 38.9738 111.661 38.9738H113.508V36.5478Z" fill="#FFFEFE"/>
<path id="Vector_18" d="M124.626 42.1505L122.512 37.2597V42.1505H121.608V35.7983H122.717L124.984 41.0329L127.239 35.7983H128.347V42.1505H127.443V37.2597L125.329 42.1505H124.629H124.626Z" fill="#FFFEFE"/>
<path id="Vector_19" d="M133.899 35.6719C135.67 35.6719 136.905 37.0313 136.905 38.9628V39.2045H131.81C131.887 40.5761 132.689 41.4276 133.899 41.4276C134.841 41.4276 135.516 40.932 135.784 40.0682L136.663 40.2212C136.307 41.4531 135.275 42.2536 133.9 42.2536C132.129 42.2536 130.894 40.8943 130.894 38.9628C130.894 37.0313 132.129 35.6719 133.9 35.6719H133.899ZM131.835 38.4671H135.975C135.822 37.2353 135.033 36.4979 133.899 36.4979C132.765 36.4979 131.988 37.2475 131.835 38.4671Z" fill="#FFFEFE"/>
<path id="Vector_20" d="M139.108 36.9547C139.108 34.7061 140.356 33.3845 142.471 33.1937C143.056 33.1427 143.63 33.0917 144.216 32.7868V33.5619C143.63 33.8668 143.056 33.9178 142.471 33.9688C140.84 34.1085 140.013 35.1629 140.013 36.4968V36.611C140.522 35.9635 141.273 35.6076 142.115 35.6076C143.758 35.6076 144.904 36.9669 144.904 38.8985C144.904 40.83 143.809 42.2148 142.013 42.2148C140.216 42.2148 139.109 40.881 139.109 38.7587V36.9547H139.108ZM140.012 38.8985C140.012 40.4352 140.725 41.4143 142.011 41.4143C143.298 41.4143 143.998 40.4363 143.998 38.8985C143.998 37.3606 143.221 36.4336 141.935 36.4336C140.649 36.4336 140.012 37.5003 140.012 38.67V38.8985Z" fill="#FFFEFE"/>
<path id="Vector_21" d="M150.201 35.6719C151.972 35.6719 153.207 37.0313 153.207 38.9628V39.2045H148.112C148.189 40.5761 148.991 41.4276 150.201 41.4276C151.144 41.4276 151.818 40.932 152.086 40.0682L152.966 40.2212C152.609 41.4531 151.577 42.2536 150.202 42.2536C148.431 42.2536 147.196 40.8943 147.196 38.9628C147.196 37.0313 148.431 35.6719 150.202 35.6719H150.201ZM148.138 38.4671H152.278C152.124 37.2353 151.335 36.4979 150.201 36.4979C149.067 36.4979 148.29 37.2475 148.138 38.4671Z" fill="#FFFEFE"/>
<path id="Vector_22" d="M161.321 35.7983V42.1505H160.417V36.5478H158.137L157.691 40.3975C157.563 41.452 157.003 42.1505 155.972 42.1505H155.347V41.401H155.869C156.506 41.401 156.773 40.9686 156.85 40.3088L157.359 35.7994H161.32L161.321 35.7983Z" fill="#FFFEFE"/>
<path id="Vector_23" d="M165.027 35.7983V38.2243H166.989C168.326 38.2243 169.001 39.2023 169.001 40.1802C169.001 41.1582 168.326 42.1494 166.989 42.1494H164.123V35.7972H165.027V35.7983ZM165.027 41.401H166.873C167.676 41.401 168.083 40.7912 168.083 40.1813C168.083 39.5715 167.688 38.975 166.873 38.975H165.027V41.401Z" fill="#FFFEFE"/>
</g>
<path id="Vector_24" d="M14.6315 5.43306H4.18201V53H14.6315V5.43306Z" fill="#E14833"/>
<path id="Vector_25" d="M31.4173 0H20.9678V47.5669H31.4173V0Z" fill="#E14833"/>
<path id="Vector_26" d="M35.6793 51.7072H16.8703V3.25873H1.93871V50.7403H0V1.3239H18.809V49.7723H33.7395V2.29076H35.6793V51.7072Z" fill="#FFFEFE"/>
<path id="Vector_27" d="M22.9688 24.9632H19.8562V28.0678H22.9688V24.9632Z" fill="#FFFEFE"/>
<path id="Vector_28" d="M15.7431 24.9632H12.6305V28.0678H15.7431V24.9632Z" fill="#FFFEFE"/>
</g>
<defs>
<clipPath id="clip0_395_70">
<rect width="169" height="53" fill="white"/>
</clipPath>
</defs>
</svg>
