<svg width="34" height="34" viewBox="0 0 34 34" fill="none" xmlns="http://www.w3.org/2000/svg">
<g id="streamline:closet-solid">
<path id="Vector" fill-rule="evenodd" clip-rule="evenodd" d="M15.4821 0H6.07143C5.10528 0 4.17871 0.3838 3.49554 1.06697C2.81237 1.75014 2.42857 2.67671 2.42857 3.64286V30.3571C2.42857 31.3233 2.81237 32.2499 3.49554 32.933C4.17871 33.6162 5.10528 34 6.07143 34H15.4821V0ZM18.5179 34H27.9286C28.8947 34 29.8213 33.6162 30.5045 32.933C31.1876 32.2499 31.5714 31.3233 31.5714 30.3571V3.64286C31.5714 2.67671 31.1876 1.75014 30.5045 1.06697C29.8213 0.3838 28.8947 0 27.9286 0L18.5179 0V34ZM23.0714 14.1756C23.9093 14.1756 24.5893 14.8556 24.5893 15.6934V18.3066C24.5893 18.5059 24.55 18.7033 24.4737 18.8874C24.3975 19.0716 24.2857 19.2389 24.1447 19.3799C24.0038 19.5208 23.8364 19.6326 23.6523 19.7089C23.4681 19.7852 23.2708 19.8244 23.0714 19.8244C22.8721 19.8244 22.6747 19.7852 22.4906 19.7089C22.3064 19.6326 22.1391 19.5208 21.9981 19.3799C21.8572 19.2389 21.7454 19.0716 21.6691 18.8874C21.5928 18.7033 21.5536 18.5059 21.5536 18.3066V15.6934C21.5536 14.8531 22.2336 14.1756 23.0714 14.1756ZM12.4464 15.6934C12.4464 15.2909 12.2865 14.9048 12.0019 14.6201C11.7172 14.3355 11.3311 14.1756 10.9286 14.1756C10.526 14.1756 10.1399 14.3355 9.85529 14.6201C9.57063 14.9048 9.41072 15.2909 9.41072 15.6934V18.3066C9.41072 18.7091 9.57063 19.0952 9.85529 19.3799C10.1399 19.6645 10.526 19.8244 10.9286 19.8244C11.3311 19.8244 11.7172 19.6645 12.0019 19.3799C12.2865 19.0952 12.4464 18.7091 12.4464 18.3066V15.6934Z" fill="#AEA6A5"/>
</g>
</svg>
